Patient4_TMGait_0pt6_02_left_36_EMG.mot
version=1
nRows=33
nColumns=33
inDegrees=no
endheader
time	1LAddLong	2LGlutMax	3LGlutMed	4LIliopsoas	5LSemiMemb	6LBicFemLong	7LRecFem	8LVastMed	9LVastLat	10LGasMed	11LTibAnt	12lTibPost	13LPeroneusLong	14LSol	15LExtDigLong	16LFlexDigLong	17RAddLong	18RGlutMax	19RGlutMed	20RIliopsoas	21RSemiMemb	22RBicFemLong	23RRecFem	24RVastMed	25RVastLat	26RGasMed	27RTibAnt	28RTibPost	29RPeroneusLong	30RSol	31RExtDigLong	32RFlexDigLong
45.218	0.00351	0.42938	0.021515	0.012512	0.005188	-0.025024	0.022278	0.005035	0.12787	0.045776	-0.027313	-0.003662	0.10147	-0.044556	-0.16968	0.003204	-0.001526	0.2066	0.41519	0.25406	0.000458	0.057068	0.081177	-0.000458	-0.004578	-0.030975	-0.063019	-0.022583	-1.0504	-0.071259	-0.000458	0.001221
45.219	0.007782	0.49362	0.037994	0.008087	0.055847	-0.011902	0.023804	0.00473	0.13412	0.029755	0.055084	0.002441	0.057373	-0.057068	-0.22446	-0.001221	0.002594	0.20096	0.46387	0.15595	-0.024109	0.045776	0.050659	-0.057831	0.024109	-0.004272	-0.1088	-0.02182	-0.77011	-0.14114	0.001526	0.00473
45.22	0.006714	0.58914	0.01297	0.005646	0.015259	-0.04837	0.014801	0.011139	0.1265	0.009308	0.010834	0.018005	0.071106	-0.096893	-0.1651	-0.018921	-0.002136	0.27679	0.61386	0.11688	-0.012054	0.015259	-0.023346	-0.04715	0.093689	0.023041	-0.079956	0.001831	-0.9964	-0.16373	0.001526	-0.007019
45.221	0.006104	0.74768	-0.009003	-0.004578	-0.010223	-0.05249	0.016327	0.004425	0.13001	-0.016632	-0.07782	0.01297	0.097504	-0.051575	-0.019684	0.010834	-0.016632	0.38147	0.47852	0.13077	0.033417	0.000763	0.040894	-0.023346	0.15671	0.013428	0.043182	0.058594	-0.27725	-0.19012	-0.001678	-0.015564
45.222	0.008698	0.8548	0.013885	-0.004272	0.005493	-0.081787	0.017395	0.00824	0.12741	-0.038147	-0.007782	0.007324	0.10346	-0.006714	-0.13153	0.011139	0.001678	0.40894	0.16022	0.074768	0.053711	-0.030212	0.18143	-0.036163	0.13489	-0.010071	0.37125	0.022888	-0.21774	-0.25406	0.000763	-0.014343
45.223	0.011292	0.9816	0.033264	-0.000458	-0.022888	-0.10635	0.016785	0.007935	0.11902	-0.032654	0.11032	0.004425	0.079956	0.000153	0.37247	0.019989	0.000458	0.42694	0.12054	0.036011	0.04425	-0.029602	0.24704	-0.032349	0.10681	-0.004883	0.72083	0.00061	-0.63477	-0.32196	0.001526	-0.003052
45.224	0.014954	1.0701	0.034332	-0.007629	-0.056	-0.11093	0.014343	0.008545	0.112	-0.043335	0.11307	0.009155	0.070953	0.017853	-0.090485	0.011139	-0.00351	0.37018	-0.45029	0.070648	0.018463	-0.008698	0.31158	-0.084991	0.04364	0.012512	0.7225	-0.015717	0.15289	-0.18524	0.001221	-0.000763
45.225	0.019989	1.1813	0.021362	0.005341	0.001373	-0.086212	0.00824	0.002441	0.11429	-0.058441	0.078888	0.013428	0.038757	0.010986	0.014496	0.021667	-0.001373	0.45563	-0.36591	0.032654	0.000763	-0.12528	0.1831	-0.064087	-0.050812	0.026093	-0.215	0.001526	0.98724	-0.13077	-0.003357	0.004425
45.226	0.021057	1.2459	-0.019226	0.001831	0.004425	-0.10513	-0.009308	0.006104	0.11444	-0.047607	-0.048981	0.015106	-0.005646	-0.020142	-0.030823	0.018005	-0.010834	0.49896	-0.04715	0.025787	0.014343	-0.21454	-0.020905	0.000763	-0.036469	0.014954	-0.52643	-0.002747	0.47958	-0.050201	-0.002594	-0.003662
45.227	0.015259	1.2344	-0.081635	-0.000458	0.051575	-0.10895	-0.009766	0.005646	0.11078	-0.025024	-0.077362	0.008545	-0.003967	-0.049133	-0.05127	-0.000305	-0.00946	0.58777	1.073	-0.025482	0.022888	-0.27145	-0.29923	-0.01709	-0.014648	0.001984	-0.41748	-0.005341	-0.94482	-0.023804	0.000458	-0.011444
45.228	0.018616	1.1691	-0.078583	-0.000916	-0.063171	-0.097046	0.001984	0.011444	0.10361	-0.010529	0.024567	0.014038	0.011902	-0.074463	-0.03479	-0.000305	-0.007629	0.62546	1.3106	-0.021667	0.010529	-0.21622	-0.40939	0.092773	0.27969	-0.007172	-0.1413	-0.007019	0.079193	0.035706	0.001068	-0.016327
45.229	0.013275	1.0681	-0.079803	0.002136	0.005035	-0.098877	0.001068	0.008392	0.11231	-0.001678	0.10452	-0.009003	0.023346	-0.088806	-0.12131	-0.00061	-0.016479	0.59296	0.76843	-0.049133	0.001984	-0.027466	-0.25238	0.13062	0.36194	-0.016174	-0.38757	-0.003052	1.5034	-0.019379	-0.005341	-0.008698
45.23	0.014801	0.93094	-0.028534	-0.012054	0.048523	-0.1236	-0.007935	0.003204	0.11459	-0.011444	0.14175	-0.001984	0.052795	-0.052643	-0.065765	0.003662	-0.002289	0.44662	-0.80521	-0.013885	-0.015717	0.11261	-0.088043	0.079193	0.25024	0.002594	-0.28076	-0.000763	0.62103	-0.094452	-0.000458	-0.002747
45.231	0.010223	0.77606	-0.030518	0.005493	0.027313	-0.11108	-0.011444	0.003967	0.12604	-0.033875	0.1297	-0.016174	0.1294	-0.025177	-0.10025	0.000458	-0.02594	0.30884	-1.3956	0.004272	0.007782	0.20569	-0.12116	0.034637	0.21576	-0.014038	0.1503	-0.005951	-2.3155	0.13245	-0.001526	-0.001526
45.232	0.007019	0.71121	-0.061035	0.007172	0.004272	-0.095215	-0.000763	0.005646	0.12299	-0.032501	0.025635	-0.007477	0.15182	-0.021667	-0.10437	0.001373	-0.021515	0.39337	-0.072937	-0.055695	0.021515	0.5098	-0.098572	0.098724	0.21835	-0.013123	0.056152	0.005798	-2.3442	0.20905	0.001678	-0.012817
45.233	0.017853	0.62241	-0.049896	-0.005035	-0.012207	-0.090637	-0.007935	0.009308	0.11993	-0.025024	-0.007477	-0.00885	0.13001	-0.028229	0.058441	0.009766	-0.0354	0.36957	0.50842	-0.068817	0.025177	0.62164	-0.13336	0.13733	0.2063	0.009766	0.009155	-0.002441	1.6241	0.22385	0.001984	-0.007935
45.234	0.01297	0.59052	-0.1239	0.00351	-0.019684	-0.097656	-0.001831	0.001526	0.11826	-0.024872	-0.010376	-0.019836	0.094147	-0.024567	0.06012	-0.004425	-0.022888	0.39734	0.21454	0.002899	0.028839	0.4863	-0.17899	0.079498	0.19638	-0.012054	0.28519	-0.005798	0.96786	0.31586	-0.001678	-0.009766
45.235	0.005646	0.46738	-0.13596	0.004578	-0.005493	-0.08667	-0.000916	0.001984	0.11719	-0.020294	-0.010223	-0.028534	0.10773	-0.053711	0.078278	0.002747	-0.040894	0.30594	-0.336	0.035706	0.009766	0.20309	-0.19028	0.05722	0.10284	-0.002747	0.18707	-0.006866	0.52261	-0.013275	0.00061	-0.006714
45.236	0.013123	0.41138	-0.093231	-0.012207	0.026855	-0.061951	0.015869	0.001221	0.093689	-0.02243	-0.010071	-0.026855	0.1268	-0.080872	0.083618	0.006561	0.003815	0.20187	-1.0545	-0.14648	-0.066071	-0.3241	-0.20905	-0.018616	0.036316	0.002441	-0.11307	-0.012054	0.77591	-0.045776	0.001984	-0.00061
45.237	0.014038	0.38254	-0.025635	-0.007172	-0.00412	-0.052643	0.026093	0.007477	0.082092	-0.028839	0.000458	-0.026855	0.13077	-0.02533	0.060272	0.009308	0.020142	0.10407	-0.68131	-0.21149	-0.14404	-0.71777	-0.11871	-0.081635	0.054779	0.024719	-0.38437	-0.015411	0.52856	0.032196	0.001526	-0.001373
45.238	0.005188	0.25635	0.029907	-0.007324	-0.03067	-0.060577	0.008698	0.003052	0.085754	-0.029907	0.027161	-0.033722	0.11276	0.016174	-0.016785	0.009308	0.035858	0.058136	-0.23636	-0.20813	-0.18356	-0.63736	0.095062	-0.025482	0.016937	0.034485	-0.20615	-0.020294	-0.81116	0.036163	-0.001831	-0.006714
45.239	0.009003	0.15243	0.050812	0.003815	-0.00473	-0.051575	0.020142	0.000458	0.079193	-0.036011	0.042572	-0.033875	0.098877	-0.005341	-0.019226	0.010986	0.007935	0.045471	-0.46188	-0.088501	-0.1648	-0.23834	0.11749	-0.010834	-0.012817	-0.011749	0.024109	-0.027466	-0.30914	0.16708	0.001984	-0.006714
45.24	0.012054	0.058899	0.10864	-0.003204	0.00412	-0.019684	0.027161	0.006256	0.059204	-0.029297	0.067444	-0.032806	0.092163	-0.043182	0.13031	0.002441	0.007782	0.064087	0.091705	-0.002289	-0.12177	0.092316	0.14114	-0.002136	-0.062408	-0.037231	0.17807	-0.019684	-0.34912	0.098114	0.001526	-0.00824
45.241	0.002899	-0.014496	0.12726	-0.003357	0.020752	-0.007172	0.028839	0.005951	0.047913	-0.037384	0.02243	-0.034027	0.096893	0.001373	0.36774	0.011292	0.001831	-0.03952	-0.1445	0.097198	-0.1059	0.035858	0.11749	0.029144	-0.080414	-0.018921	0.26535	0.10208	-0.17288	0.014496	-0.00061	-0.011749
45.242	0.001373	-0.064392	0.1001	-0.000916	0.007935	0.021515	0.041504	0.008698	0.045471	-0.056763	0.013885	-0.02182	0.15213	-0.031738	0.27649	0.003357	0.002747	-0.071411	-0.34759	0.088654	-0.075836	0.2565	0.24857	-0.032196	-0.084076	-0.011749	0.15076	0.026093	-0.27908	-0.018463	-0.001984	-0.003204
45.243	0.006561	-0.11261	0.020447	0.004883	0.005493	0.074768	0.025177	0.005798	0.052948	-0.036469	-0.016785	-0.020599	0.14847	-0.084076	0.2298	0.002747	0.002289	-0.020905	0.10437	-0.056152	-0.004272	0.60654	0.19745	-0.10223	-0.046844	-0.027161	0.15533	-0.031891	-0.62103	0.033875	-0.001984	-0.00824
45.244	0.017395	-0.1651	-0.014648	-0.00946	0.03418	0.064087	0.021362	0.006104	0.053711	-0.027313	0.077209	-0.034943	0.079346	-0.086365	-0.075226	-0.006256	-0.005798	-0.058289	0.19516	-0.11017	0.047913	0.86807	0.095062	-0.036469	-0.070038	-0.051575	0.15991	-0.032043	-1.0704	0.048828	-0.006866	-0.015564
45.245	0.014191	-0.21301	-0.023804	-0.024567	-0.006256	0.006409	0.030518	0.00412	0.063324	-0.048218	0.053406	-0.038147	0.085297	-0.016479	-0.17548	0.003967	0.013123	0.031433	0.27603	-0.04303	0.015106	0.72022	0.242	-0.09964	-0.10803	-0.059357	0.1358	-0.014343	-0.54504	-0.059509	-0.001221	-0.012207
45.246	0.010834	-0.25543	-0.053406	-0.025787	-0.063629	0.006714	0.018158	0.007629	0.061951	-0.055542	-0.061798	-0.032959	0.11444	-0.002441	0.13473	0.005646	0.018768	-0.000153	-0.045929	-0.012665	-0.084381	0.24139	0.31204	-0.17883	-0.23529	-0.049286	0.085602	-0.011444	1.0835	-0.10193	-0.005188	-0.011902
45.247	0.008698	-0.27634	-0.023804	0.007782	-0.070953	0.016174	0.025635	0.003967	0.070343	-0.050812	-0.076904	-0.032501	0.13489	-0.020905	0.21469	-0.01297	0.022278	0.027008	0.39429	0.02243	-0.1001	0.068054	0.37186	-0.21271	-0.31357	-0.048065	0.057678	-0.015106	1.4267	-0.13107	-0.006561	-0.005188
45.248	0.002594	-0.31509	-0.066986	0.012054	-0.058136	0.003204	0.014954	0.007477	0.077515	-0.050507	-0.067139	-0.035248	0.13336	-0.07782	-0.61035	-0.010681	0.017548	0.005035	-0.030365	0.085602	0.01709	-0.1889	0.20035	-0.22934	-0.24719	-0.029297	0.093842	0.021973	2.2108	-0.08255	-0.005035	-0.001526
45.249	0.00824	-0.31509	-0.052185	0.027313	-0.035248	-0.040588	0.014343	0.007324	0.069122	-0.049591	-0.048523	-0.030365	0.1181	-0.085297	-0.40436	-0.001984	0.005188	0.033875	-0.48874	0.050354	0.1619	-0.27374	0.12329	-0.010376	-0.082245	0.010834	-0.02533	0.012054	1.1482	-0.081482	-0.001526	-0.00061
45.25	0.018616	-0.31616	-0.058136	0.014191	0.035248	-0.06546	0.022583	0	0.072784	-0.022278	-0.053711	-0.027313	0.075989	-0.093384	-0.298	-0.010071	-0.000153	-0.008087	-0.2272	0.026703	0.11902	-0.19638	0.21927	0.11673	-0.005341	0.072327	-0.33417	-0.000153	-0.84839	-0.24429	-0.001678	-0.001984
